<svg height="670" width="720" xmlns="http://www.w3.org/2000/svg">
<rect height="670" fill="#555" width="720"></rect>
<text fill="#7f7" font-family="Courier New" font-size="12" xml:space="preserve">
<tspan x="10" y="26"></tspan>

<tspan x="10" y="42">\x1b[35m[MODE_BUILD=buildApp]\x1b[0m - 2020-01-20T23:33:02.123Z - npm-testing /home/travis/build\</tspan>
<tspan x="10" y="58">/kaizhu256/node-bootstrap-lite</tspan>

<tspan x="10" y="74"></tspan>

<tspan x="10" y="90"></tspan>

<tspan x="10" y="106">buildApp - merged test-report from file /home/travis/build/kaizhu256/node-bootstrap-lite/tmp/bui\</tspan>
<tspan x="10" y="122">ld/test-report.json</tspan>

<tspan x="10" y="138">&gt; http-server listening on port 55470</tspan>

<tspan x="10" y="154"></tspan>

<tspan x="10" y="170">buildApp - merged test-report from file /home/travis/build/kaizhu256/node-bootstrap-lite/tmp/bui\</tspan>
<tspan x="10" y="186">ld/test-report.json</tspan>

<tspan x="10" y="202">jslint - 203ms /home/travis/build/kaizhu256/node-bootstrap-lite/README.md</tspan>

<tspan x="10" y="218">jslint - 0ms /home/travis/build/kaizhu256/node-bootstrap-lite/lib.bootstrap.css</tspan>

<tspan x="10" y="234">jslint - 254ms /home/travis/build/kaizhu256/node-bootstrap-lite/lib.bootstrap.js</tspan>

<tspan x="10" y="250">jslint - 18ms /home/travis/build/kaizhu256/node-bootstrap-lite/npm_scripts.sh</tspan>

<tspan x="10" y="266">jslint - 7ms /home/travis/build/kaizhu256/node-bootstrap-lite/package.json</tspan>

<tspan x="10" y="282">jslint - 101ms /home/travis/build/kaizhu256/node-bootstrap-lite/test.js</tspan>

<tspan x="10" y="298">http-server listening on port 42848</tspan>

<tspan x="10" y="314">testRunDefault - 10112 ms - testCase pending - testCase_buildApp_default ...</tspan>

<tspan x="10" y="330">testRunDefault - 13248 ms - [node test-case 1 of 1 passed] - testCase_buildApp_default</tspan>

<tspan x="10" y="346"></tspan>

<tspan x="10" y="362">buildApp - merged test-report from file /home/travis/build/kaizhu256/node-bootstrap-lite/tmp/bui\</tspan>
<tspan x="10" y="378">ld/test-report.json</tspan>

<tspan x="10" y="394"></tspan>

<tspan x="10" y="410">-------------------------------------------------------</tspan>

<tspan x="10" y="426">| test-report - buildApidoc - node - linux v13.6.0 - 2020-01-20T23:32:56.980Z</tspan>

<tspan x="10" y="442">|   13248 ms            0 failed        1 passed      |</tspan>

<tspan x="10" y="458">-------------------------------------------------------</tspan>

<tspan x="10" y="474">| test-report - npmTest - node - linux v13.6.0 - 2020-01-20T23:32:47.857Z</tspan>

<tspan x="10" y="490">|    5952 ms            0 failed        7 passed      |</tspan>

<tspan x="10" y="506">-------------------------------------------------------</tspan>

<tspan x="10" y="522"></tspan>

<tspan x="10" y="538">created test-report file /home/travis/build/kaizhu256/node-bootstrap-lite/tmp/build/test-report.\</tspan>
<tspan x="10" y="554">html</tspan>

<tspan x="10" y="570"></tspan>

<tspan x="10" y="586"></tspan>

<tspan x="10" y="602">buildApp - 0 failed tests</tspan>

<tspan x="10" y="618"></tspan>

<tspan x="10" y="634"></tspan>

<tspan x="10" y="650">\x1b[35m[MODE_BUILD=buildApp]\x1b[0m - 2020-01-20T23:33:10.576Z - EXIT_CODE - 0</tspan>

</text>
</svg>
