<svg height="2414" width="720" xmlns="http://www.w3.org/2000/svg">
<rect height="2414" fill="#555" width="720"></rect>
<text fill="#7f7" font-family="Courier New" font-size="12" xml:space="preserve">
<tspan x="10" y="26">2020-01-20 16:46:57 -0600</tspan>

<tspan x="10" y="42">- rename file assets.bootstrap-v3.4.1.rollup.min.xxx to lib.bootstrap.xxx</tspan>

<tspan x="10" y="58"></tspan>

<tspan x="10" y="74">2020-01-20 16:35:33 -0600</tspan>

<tspan x="10" y="90">css</tspan>

<tspan x="10" y="106"></tspan>

<tspan x="10" y="122">2020-01-20 15:58:13 -0600</tspan>

<tspan x="10" y="138">- rename file assets.bootstrap-v3.4.1.rollup.min.xxx to lib.bootstrap.xxx</tspan>

<tspan x="10" y="154"></tspan>

<tspan x="10" y="170">2020-01-20 15:46:57 -0600</tspan>

<tspan x="10" y="186">- rename file assets.bootstrap-v3.4.1.rollup.min.xxx to lib.bootstrap.xxx</tspan>

<tspan x="10" y="202"></tspan>

<tspan x="10" y="218">2020-01-20 15:41:20 -0600</tspan>

<tspan x="10" y="234">unminify</tspan>

<tspan x="10" y="250"></tspan>

<tspan x="10" y="266">2020-01-20 15:38:57 -0600</tspan>

<tspan x="10" y="282">jslint</tspan>

<tspan x="10" y="298"></tspan>

<tspan x="10" y="314">2020-01-20 15:35:18 -0600</tspan>

<tspan x="10" y="330">cull.datatable</tspan>

<tspan x="10" y="346"></tspan>

<tspan x="10" y="362">2020-01-20 15:32:17 -0600</tspan>

<tspan x="10" y="378">cull.datatable</tspan>

<tspan x="10" y="394"></tspan>

<tspan x="10" y="410">2020-01-20 15:25:35 -0600</tspan>

<tspan x="10" y="426">- rename file assets.bootstrap-v3.4.1.rollup.min.xxx to lib.bootstrap.xxx</tspan>

<tspan x="10" y="442"></tspan>

<tspan x="10" y="458">2020-01-20 15:13:30 -0600</tspan>

<tspan x="10" y="474">- rename file assets.bootstrap-v3.4.1.rollup.min.xxx to lib.bootstrap.xxx</tspan>

<tspan x="10" y="490"></tspan>

<tspan x="10" y="506">2020-01-20 15:12:35 -0600</tspan>

<tspan x="10" y="522">- rename file assets.bootstrap-v3.4.1.rollup.min.xxx to lib.bootstrap.xxx</tspan>

<tspan x="10" y="538"></tspan>

<tspan x="10" y="554">2020-01-20 15:06:52 -0600</tspan>

<tspan x="10" y="570">cull.datatable</tspan>

<tspan x="10" y="586"></tspan>

<tspan x="10" y="602">2020-01-20 15:00:17 -0600</tspan>

<tspan x="10" y="618">cull.assets</tspan>

<tspan x="10" y="634"></tspan>

<tspan x="10" y="650">2020-01-20 14:50:36 -0600</tspan>

<tspan x="10" y="666">cull.datatable</tspan>

<tspan x="10" y="682"></tspan>

<tspan x="10" y="698">2020-01-20 14:48:52 -0600</tspan>

<tspan x="10" y="714">cull.datatable</tspan>

<tspan x="10" y="730"></tspan>

<tspan x="10" y="746">2020-01-20 14:34:54 -0600</tspan>

<tspan x="10" y="762">buttons.css</tspan>

<tspan x="10" y="778"></tspan>

<tspan x="10" y="794">2020-01-20 14:28:56 -0600</tspan>

<tspan x="10" y="810">datatable.image</tspan>

<tspan x="10" y="826"></tspan>

<tspan x="10" y="842">2020-01-20 14:25:53 -0600</tspan>

<tspan x="10" y="858">woff</tspan>

<tspan x="10" y="874"></tspan>

<tspan x="10" y="890">2020-01-20 14:21:49 -0600</tspan>

<tspan x="10" y="906">cull.electron</tspan>

<tspan x="10" y="922"></tspan>

<tspan x="10" y="938">2020-01-20 14:09:06 -0600</tspan>

<tspan x="10" y="954">cleanup.table</tspan>

<tspan x="10" y="970"></tspan>

<tspan x="10" y="986">2020-01-20 13:55:48 -0600</tspan>

<tspan x="10" y="1002">css</tspan>

<tspan x="10" y="1018"></tspan>

<tspan x="10" y="1034">2020-01-20 13:43:49 -0600</tspan>

<tspan x="10" y="1050">update</tspan>

<tspan x="10" y="1066"></tspan>

<tspan x="10" y="1082">2019-10-11 14:38:08 -0500</tspan>

<tspan x="10" y="1098">- add assets for jquery.datatables-v1.10.19, chartjs-v2.8.0</tspan>

<tspan x="10" y="1114"></tspan>

<tspan x="10" y="1130">2019-10-11 14:32:59 -0500</tspan>

<tspan x="10" y="1146">- update to bootstrap v3.4.1</tspan>

<tspan x="10" y="1162"></tspan>

<tspan x="10" y="1178">2019-10-11 14:15:55 -0500</tspan>

<tspan x="10" y="1194">- update to bootstrap v3.4.1</tspan>

<tspan x="10" y="1210"></tspan>

<tspan x="10" y="1226">2019-10-11 14:13:11 -0500</tspan>

<tspan x="10" y="1242">- update to bootstrap v3.4.1</tspan>

<tspan x="10" y="1258"></tspan>

<tspan x="10" y="1274">2019-10-11 14:04:02 -0500</tspan>

<tspan x="10" y="1290">- update to bootstrap v3.4.1</tspan>

<tspan x="10" y="1306"></tspan>

<tspan x="10" y="1322">2019-10-11 14:01:11 -0500</tspan>

<tspan x="10" y="1338">- update to bootstrap v3.4.1</tspan>

<tspan x="10" y="1354"></tspan>

<tspan x="10" y="1370">2019-10-11 13:52:05 -0500</tspan>

<tspan x="10" y="1386">- update to bootstrap v3.4.1</tspan>

<tspan x="10" y="1402"></tspan>

<tspan x="10" y="1418">2019-10-11 18:50:40 +0000</tspan>

<tspan x="10" y="1434">- fix build-ci for bootstrap-lite, jslint-lite</tspan>

<tspan x="10" y="1450"></tspan>

<tspan x="10" y="1466">2019-10-11 13:46:42 -0500</tspan>

<tspan x="10" y="1482">- update to bootstrap v3.4.1</tspan>

<tspan x="10" y="1498"></tspan>

<tspan x="10" y="1514">2019-10-11 13:05:47 -0500</tspan>

<tspan x="10" y="1530">- update to bootstrap v3.4.1</tspan>

<tspan x="10" y="1546"></tspan>

<tspan x="10" y="1562">2019-10-11 12:39:40 -0500</tspan>

<tspan x="10" y="1578">- update to bootstrap v3.4.1</tspan>

<tspan x="10" y="1594"></tspan>

<tspan x="10" y="1610">2019-10-11 17:29:25 +0000</tspan>

<tspan x="10" y="1626">- update to bootstrap v3.4.1</tspan>

<tspan x="10" y="1642"></tspan>

<tspan x="10" y="1658">2019-10-11 12:03:55 -0500</tspan>

<tspan x="10" y="1674">- update to bootstrap v3.4.1</tspan>

<tspan x="10" y="1690"></tspan>

<tspan x="10" y="1706">2019-10-11 12:00:08 -0500</tspan>

<tspan x="10" y="1722">- update to bootstrap v3.4.1</tspan>

<tspan x="10" y="1738"></tspan>

<tspan x="10" y="1754">2019-10-11 11:49:17 -0500</tspan>

<tspan x="10" y="1770">- rename file assets.bootstrap-v3.4.1.rollup.min.xxx to lib.bootstrap.xxx</tspan>

<tspan x="10" y="1786"></tspan>

<tspan x="10" y="1802">2019-10-11 11:40:50 -0500</tspan>

<tspan x="10" y="1818">- rename file assets.bootstrap-v3.4.1.rollup.min.xxx to lib.bootstrap.xxx</tspan>

<tspan x="10" y="1834"></tspan>

<tspan x="10" y="1850">2019-10-11 10:41:46 -0500</tspan>

<tspan x="10" y="1866">- rename file assets.bootstrap-v3.4.1.rollup.min.xxx to lib.bootstrap.xxx</tspan>

<tspan x="10" y="1882"></tspan>

<tspan x="10" y="1898">2019-10-11 10:40:40 -0500</tspan>

<tspan x="10" y="1914">- update to bootstrap v3.4.1</tspan>

<tspan x="10" y="1930"></tspan>

<tspan x="10" y="1946">2019-10-11 10:35:20 -0500</tspan>

<tspan x="10" y="1962">- add alias chartjs-lite datatable-lite</tspan>

<tspan x="10" y="1978"></tspan>

<tspan x="10" y="1994">2019-10-11 10:31:48 -0500</tspan>

<tspan x="10" y="2010">- update to bootstrap v3.4.1</tspan>

<tspan x="10" y="2026"></tspan>

<tspan x="10" y="2042">2019-10-11 10:29:01 -0500</tspan>

<tspan x="10" y="2058">- add alias chartjs-lite datatable-lite</tspan>

<tspan x="10" y="2074"></tspan>

<tspan x="10" y="2090">2019-10-11 10:25:12 -0500</tspan>

<tspan x="10" y="2106">- add assets for jquery.datatables-v1.10.19, chartjs-v2.8.0</tspan>

<tspan x="10" y="2122"></tspan>

<tspan x="10" y="2138">2019-10-10 17:45:06 -0500</tspan>

<tspan x="10" y="2154">- add assets for jquery.datatables-v1.10.19, chartjs-v2.8.0, tinymce-v5.0.16</tspan>

<tspan x="10" y="2170"></tspan>

<tspan x="10" y="2186">2019-10-10 17:30:00 -0500</tspan>

<tspan x="10" y="2202">add.tinymce</tspan>

<tspan x="10" y="2218"></tspan>

<tspan x="10" y="2234">2019-10-10 17:15:05 -0500</tspan>

<tspan x="10" y="2250">add.datatables</tspan>

<tspan x="10" y="2266"></tspan>

<tspan x="10" y="2282">2019-10-10 17:11:19 -0500</tspan>

<tspan x="10" y="2298">add.raw.bootstrap.css</tspan>

<tspan x="10" y="2314"></tspan>

<tspan x="10" y="2330">2019-10-10 17:08:47 -0500</tspan>

<tspan x="10" y="2346">add.raw.bootstrap.css</tspan>

<tspan x="10" y="2362"></tspan>

<tspan x="10" y="2378">2019-10-10 17:00:18 -0500</tspan>

<tspan x="10" y="2394">add.chartjs</tspan>

</text>
</svg>
