<svg height="3326" width="720" xmlns="http://www.w3.org/2000/svg">
<rect height="3326" fill="#555" width="720"></rect>
<text fill="#7f7" font-family="Courier New" font-size="12" xml:space="preserve">
<tspan x="10" y="26"></tspan>

<tspan x="10" y="42">\x1b[35m[MODE_BUILD=npmTestPublished]\x1b[0m - 2020-01-20T23:37:16.140Z - npm-testing /tmp/npmTe\</tspan>
<tspan x="10" y="58">stPublished/node_modules/bootstrap-lite</tspan>

<tspan x="10" y="74"></tspan>

<tspan x="10" y="90"></tspan>

<tspan x="10" y="106">covering $ /home/travis/.nvm/versions/node/v13.6.0/bin/node /tmp/npmTestPublished/node_modules/b\</tspan>
<tspan x="10" y="122">ootstrap-lite/test.js</tspan>

<tspan x="10" y="138">&gt; jslint - 117ms /tmp/npmTestPublished/node_modules/bootstrap-lite/README.md</tspan>

<tspan x="10" y="154">jslint - 0ms /tmp/npmTestPublished/node_modules/bootstrap-lite/lib.bootstrap.css</tspan>

<tspan x="10" y="170">jslint - 217ms /tmp/npmTestPublished/node_modules/bootstrap-lite/lib.bootstrap.js</tspan>

<tspan x="10" y="186">jslint - 1ms /tmp/npmTestPublished/node_modules/bootstrap-lite/npm_scripts.sh</tspan>

<tspan x="10" y="202">--- /tmp/npmTestPublished/node_modules/bootstrap-lite/package.json.autofix.old	2020-01-20 23:37:\</tspan>
<tspan x="10" y="218">16.934959936 +0000</tspan>

<tspan x="10" y="234">+++ /tmp/npmTestPublished/node_modules/bootstrap-lite/package.json	2020-01-20 23:37:16.934959936\</tspan>
<tspan x="10" y="250"> +0000</tspan>

<tspan x="10" y="266">@@ -1,69 +1,69 @@</tspan>

<tspan x="10" y="282"> {</tspan>

<tspan x="10" y="298">-  "_from": "bootstrap-lite",</tspan>

<tspan x="10" y="314">-  "_id": "bootstrap-lite@2020.1.20",</tspan>

<tspan x="10" y="330">-  "_inBundle": false,</tspan>

<tspan x="10" y="346">-  "_integrity": "sha512-FroAuyTWXKHu9QayyI6imKOHVbGrWfCScFEFXYvoEYxpgBsqak1HG8Elp8IzkVWj7930aNB\</tspan>
<tspan x="10" y="362">u7czO4ZTL3S72yw==",</tspan>

<tspan x="10" y="378">-  "_location": "/bootstrap-lite",</tspan>

<tspan x="10" y="394">-  "_phantomChildren": {},</tspan>

<tspan x="10" y="410">-  "_requested": {</tspan>

<tspan x="10" y="426">-    "type": "tag",</tspan>

<tspan x="10" y="442">-    "registry": true,</tspan>

<tspan x="10" y="458">-    "raw": "bootstrap-lite",</tspan>

<tspan x="10" y="474">+    "_from": "bootstrap-lite",</tspan>

<tspan x="10" y="490">+    "_id": "bootstrap-lite@2020.1.20",</tspan>

<tspan x="10" y="506">+    "_inBundle": false,</tspan>

<tspan x="10" y="522">+    "_integrity": "sha512-FroAuyTWXKHu9QayyI6imKOHVbGrWfCScFEFXYvoEYxpgBsqak1HG8Elp8IzkVWj7930a\</tspan>
<tspan x="10" y="538">NBu7czO4ZTL3S72yw==",</tspan>

<tspan x="10" y="554">+    "_location": "/bootstrap-lite",</tspan>

<tspan x="10" y="570">+    "_phantomChildren": {},</tspan>

<tspan x="10" y="586">+    "_requested": {</tspan>

<tspan x="10" y="602">+        "escapedName": "bootstrap-lite",</tspan>

<tspan x="10" y="618">+        "fetchSpec": "latest",</tspan>

<tspan x="10" y="634">+        "name": "bootstrap-lite",</tspan>

<tspan x="10" y="650">+        "raw": "bootstrap-lite",</tspan>

<tspan x="10" y="666">+        "rawSpec": "",</tspan>

<tspan x="10" y="682">+        "registry": true,</tspan>

<tspan x="10" y="698">+        "saveSpec": null,</tspan>

<tspan x="10" y="714">+        "type": "tag"</tspan>

<tspan x="10" y="730">+    },</tspan>

<tspan x="10" y="746">+    "_requiredBy_": [</tspan>

<tspan x="10" y="762">+        "#USER",</tspan>

<tspan x="10" y="778">+        "/"</tspan>

<tspan x="10" y="794">+    ],</tspan>

<tspan x="10" y="810">+    "_resolved": "https://registry.npmjs.org/bootstrap-lite/-/bootstrap-lite-2020.1.20.tgz",</tspan>

<tspan x="10" y="826">+    "_shasum": "17f6ba628ada15ecb2dabddbd3764758f80f8ba6",</tspan>

<tspan x="10" y="842">+    "_spec": "bootstrap-lite",</tspan>

<tspan x="10" y="858">+    "_where": "/tmp/npmTestPublished",</tspan>

<tspan x="10" y="874">+    "author": {</tspan>

<tspan x="10" y="890">+        "email": "kaizhu256@gmail.com",</tspan>

<tspan x="10" y="906">+        "name": "kai zhu"</tspan>

<tspan x="10" y="922">+    },</tspan>

<tspan x="10" y="938">+    "bugs": {</tspan>

<tspan x="10" y="954">+        "url": "https://github.com/kaizhu256/node-bootstrap-lite/issues"</tspan>

<tspan x="10" y="970">+    },</tspan>

<tspan x="10" y="986">+    "bundleDependencies": false,</tspan>

<tspan x="10" y="1002">+    "deprecated": false,</tspan>

<tspan x="10" y="1018">+    "description": "this zero-dependency package will provide a rolled-up .css (includes font/g\</tspan>
<tspan x="10" y="1034">lyphicon/theme) and a rolled-up .js (includes jquery) of twitter-bootstrap (v3.4.1), with a work\</tspan>
<tspan x="10" y="1050">ing web-demo",</tspan>

<tspan x="10" y="1066">+    "devDependencies": {</tspan>

<tspan x="10" y="1082">+        "utility2": "github:kaizhu256/node-utility2#alpha"</tspan>

<tspan x="10" y="1098">+    },</tspan>

<tspan x="10" y="1114">+    "engines": {</tspan>

<tspan x="10" y="1130">+        "node": "&gt;=10.0"</tspan>

<tspan x="10" y="1146">+    },</tspan>

<tspan x="10" y="1162">+    "homepage": "https://github.com/kaizhu256/node-bootstrap-lite",</tspan>

<tspan x="10" y="1178">+    "keywords": [],</tspan>

<tspan x="10" y="1194">+    "license": "MIT",</tspan>

<tspan x="10" y="1210">+    "main": "lib.bootstrap.js",</tspan>

<tspan x="10" y="1226">     "name": "bootstrap-lite",</tspan>

<tspan x="10" y="1242">-    "escapedName": "bootstrap-lite",</tspan>

<tspan x="10" y="1258">-    "rawSpec": "",</tspan>

<tspan x="10" y="1274">-    "saveSpec": null,</tspan>

<tspan x="10" y="1290">-    "fetchSpec": "latest"</tspan>

<tspan x="10" y="1306">-  },</tspan>

<tspan x="10" y="1322">-  "_requiredBy_": [</tspan>

<tspan x="10" y="1338">-    "#USER",</tspan>

<tspan x="10" y="1354">-    "/"</tspan>

<tspan x="10" y="1370">-  ],</tspan>

<tspan x="10" y="1386">-  "_resolved": "https://registry.npmjs.org/bootstrap-lite/-/bootstrap-lite-2020.1.20.tgz",</tspan>

<tspan x="10" y="1402">-  "_shasum": "17f6ba628ada15ecb2dabddbd3764758f80f8ba6",</tspan>

<tspan x="10" y="1418">-  "_spec": "bootstrap-lite",</tspan>

<tspan x="10" y="1434">-  "_where": "/tmp/npmTestPublished",</tspan>

<tspan x="10" y="1450">-  "author": {</tspan>

<tspan x="10" y="1466">-    "name": "kai zhu",</tspan>

<tspan x="10" y="1482">-    "email": "kaizhu256@gmail.com"</tspan>

<tspan x="10" y="1498">-  },</tspan>

<tspan x="10" y="1514">-  "bugs": {</tspan>

<tspan x="10" y="1530">-    "url": "https://github.com/kaizhu256/node-bootstrap-lite/issues"</tspan>

<tspan x="10" y="1546">-  },</tspan>

<tspan x="10" y="1562">-  "bundleDependencies": false,</tspan>

<tspan x="10" y="1578">-  "deprecated": false,</tspan>

<tspan x="10" y="1594">-  "description": "this zero-dependency package will provide a rolled-up .css (includes font/gly\</tspan>
<tspan x="10" y="1610">phicon/theme) and a rolled-up .js (includes jquery) of twitter-bootstrap (v3.4.1), with a workin\</tspan>
<tspan x="10" y="1626">g web-demo",</tspan>

<tspan x="10" y="1642">-  "devDependencies": {</tspan>

<tspan x="10" y="1658">-    "utility2": "github:kaizhu256/node-utility2#alpha"</tspan>

<tspan x="10" y="1674">-  },</tspan>

<tspan x="10" y="1690">-  "engines": {</tspan>

<tspan x="10" y="1706">-    "node": "&gt;=10.0"</tspan>

<tspan x="10" y="1722">-  },</tspan>

<tspan x="10" y="1738">-  "homepage": "https://github.com/kaizhu256/node-bootstrap-lite",</tspan>

<tspan x="10" y="1754">-  "keywords": [],</tspan>

<tspan x="10" y="1770">-  "license": "MIT",</tspan>

<tspan x="10" y="1786">-  "main": "lib.bootstrap.js",</tspan>

<tspan x="10" y="1802">-  "name": "bootstrap-lite",</tspan>

<tspan x="10" y="1818">-  "nameAliasPublish": "bootstrap-classic bootstrap3-lite",</tspan>

<tspan x="10" y="1834">-  "nameLib": "bootstrap",</tspan>

<tspan x="10" y="1850">-  "nameOriginal": "bootstrap-lite",</tspan>

<tspan x="10" y="1866">-  "os": [</tspan>

<tspan x="10" y="1882">-    "darwin",</tspan>

<tspan x="10" y="1898">-    "linux"</tspan>

<tspan x="10" y="1914">-  ],</tspan>

<tspan x="10" y="1930">-  "repository": {</tspan>

<tspan x="10" y="1946">-    "type": "git",</tspan>

<tspan x="10" y="1962">-    "url": "git+https://github.com/kaizhu256/node-bootstrap-lite.git"</tspan>

<tspan x="10" y="1978">-  },</tspan>

<tspan x="10" y="1994">-  "scripts": {</tspan>

<tspan x="10" y="2010">-    "build-ci": "./npm_scripts.sh",</tspan>

<tspan x="10" y="2026">-    "env": "env",</tspan>

<tspan x="10" y="2042">-    "eval": "./npm_scripts.sh",</tspan>

<tspan x="10" y="2058">-    "heroku-postbuild": "./npm_scripts.sh",</tspan>

<tspan x="10" y="2074">-    "postinstall": "./npm_scripts.sh",</tspan>

<tspan x="10" y="2090">-    "start": "./npm_scripts.sh",</tspan>

<tspan x="10" y="2106">-    "test": "./npm_scripts.sh",</tspan>

<tspan x="10" y="2122">-    "utility2": "./npm_scripts.sh"</tspan>

<tspan x="10" y="2138">-  },</tspan>

<tspan x="10" y="2154">-  "version": "2020.1.20"</tspan>

<tspan x="10" y="2170">+    "nameAliasPublish": "bootstrap-classic bootstrap3-lite",</tspan>

<tspan x="10" y="2186">+    "nameLib": "bootstrap",</tspan>

<tspan x="10" y="2202">+    "nameOriginal": "bootstrap-lite",</tspan>

<tspan x="10" y="2218">+    "os": [</tspan>

<tspan x="10" y="2234">+        "darwin",</tspan>

<tspan x="10" y="2250">+        "linux"</tspan>

<tspan x="10" y="2266">+    ],</tspan>

<tspan x="10" y="2282">+    "repository": {</tspan>

<tspan x="10" y="2298">+        "type": "git",</tspan>

<tspan x="10" y="2314">+        "url": "git+https://github.com/kaizhu256/node-bootstrap-lite.git"</tspan>

<tspan x="10" y="2330">+    },</tspan>

<tspan x="10" y="2346">+    "scripts": {</tspan>

<tspan x="10" y="2362">+        "build-ci": "./npm_scripts.sh",</tspan>

<tspan x="10" y="2378">+        "env": "env",</tspan>

<tspan x="10" y="2394">+        "eval": "./npm_scripts.sh",</tspan>

<tspan x="10" y="2410">+        "heroku-postbuild": "./npm_scripts.sh",</tspan>

<tspan x="10" y="2426">+        "postinstall": "./npm_scripts.sh",</tspan>

<tspan x="10" y="2442">+        "start": "./npm_scripts.sh",</tspan>

<tspan x="10" y="2458">+        "test": "./npm_scripts.sh",</tspan>

<tspan x="10" y="2474">+        "utility2": "./npm_scripts.sh"</tspan>

<tspan x="10" y="2490">+    },</tspan>

<tspan x="10" y="2506">+    "version": "2020.1.20"</tspan>

<tspan x="10" y="2522"> }</tspan>

<tspan x="10" y="2538">jslint-autofix - modified and saved file /tmp/npmTestPublished/node_modules/bootstrap-lite/packa\</tspan>
<tspan x="10" y="2554">ge.json</tspan>

<tspan x="10" y="2570">jslint - 30ms /tmp/npmTestPublished/node_modules/bootstrap-lite/package.json</tspan>

<tspan x="10" y="2586">jslint - 80ms /tmp/npmTestPublished/node_modules/bootstrap-lite/test.js</tspan>

<tspan x="10" y="2602">http-server listening on port 46916</tspan>

<tspan x="10" y="2618">testRunDefault - 41 ms - [node test-case 1 of 7 passed] - testCase_buildApidoc_default</tspan>

<tspan x="10" y="2634">testRunDefault - 69 ms - [node test-case 2 of 7 passed] - testCase_buildLib_default</tspan>

<tspan x="10" y="2650">testRunDefault - 79 ms - [node test-case 3 of 7 passed] - testCase_buildReadme_default</tspan>

<tspan x="10" y="2666">testRunDefault - 80 ms - [node test-case 4 of 7 passed] - testCase_buildTest_default</tspan>

<tspan x="10" y="2682">testRunDefault - 80 ms - [node test-case 5 of 7 passed] - testCase_nop_default</tspan>

<tspan x="10" y="2698"></tspan>

<tspan x="10" y="2714">DevTools listening on ws://127.0.0.1:33591/devtools/browser/d369c55c-b792-4084-8bf4-c6690c1f971c</tspan>

<tspan x="10" y="2730">[0120/233718.922773:ERROR:command_buffer_proxy_impl.cc(124)] ContextResult::kTransientFailure: F\</tspan>
<tspan x="10" y="2746">ailed to send GpuChannelMsg_CreateCommandBuffer.</tspan>

<tspan x="10" y="2762">[0120/233718.922652:ERROR:command_buffer_proxy_impl.cc(124)] ContextResult::kTransientFailure: F\</tspan>
<tspan x="10" y="2778">ailed to send GpuChannelMsg_CreateCommandBuffer.</tspan>

<tspan x="10" y="2794">[0120/233718.922617:WARNING:ipc_message_attachment_set.cc(49)] MessageAttachmentSet destroyed wi\</tspan>
<tspan x="10" y="2810">th unconsumed attachments: 0/1</tspan>

<tspan x="10" y="2826">[0120/233718.922698:WARNING:ipc_message_attachment_set.cc(49)] MessageAttachmentSet destroyed wi\</tspan>
<tspan x="10" y="2842">th unconsumed attachments: 0/1</tspan>

<tspan x="10" y="2858">http-server listening on port 49366</tspan>

<tspan x="10" y="2874">testRunDefault - 1487 ms - [node test-case 6 of 7 passed] - testCase_webpage_default</tspan>

<tspan x="10" y="2890">testRunDefault - 6014 ms - [node test-case 7 of 7 passed] - testCase_buildApp_default</tspan>

<tspan x="10" y="2906">-----------------------|-----------|-----------|-----------|-----------|</tspan>

<tspan x="10" y="2922">File                   |   % Stmts |% Branches |   % Funcs |   % Lines |</tspan>

<tspan x="10" y="2938">-----------------------|-----------|-----------|-----------|-----------|</tspan>

<tspan x="10" y="2954">   bootstrap-lite/     |       100 |       100 |       100 |       100 |</tspan>

<tspan x="10" y="2970">      lib.bootstrap.js |       100 |       100 |       100 |       100 |</tspan>

<tspan x="10" y="2986">      test.js          |       100 |       100 |       100 |       100 |</tspan>

<tspan x="10" y="3002">-----------------------|-----------|-----------|-----------|-----------|</tspan>

<tspan x="10" y="3018">All files              |       100 |       100 |       100 |       100 |</tspan>

<tspan x="10" y="3034">-----------------------|-----------|-----------|-----------|-----------|</tspan>

<tspan x="10" y="3050"></tspan>

<tspan x="10" y="3066">created coverage file /tmp/npmTestPublished/node_modules/bootstrap-lite/tmp/build/coverage.html/\</tspan>
<tspan x="10" y="3082">index.html</tspan>

<tspan x="10" y="3098"></tspan>

<tspan x="10" y="3114">-------------------------------------------------------</tspan>

<tspan x="10" y="3130">| test-report - npmTestPublished - node - linux v13.6.0 - 2020-01-20T23:37:16.307Z</tspan>

<tspan x="10" y="3146">|    6015 ms            0 failed        7 passed      |</tspan>

<tspan x="10" y="3162">-------------------------------------------------------</tspan>

<tspan x="10" y="3178"></tspan>

<tspan x="10" y="3194">created test-report file /tmp/npmTestPublished/node_modules/bootstrap-lite/tmp/build/test-report\</tspan>
<tspan x="10" y="3210">.html</tspan>

<tspan x="10" y="3226"></tspan>

<tspan x="10" y="3242"></tspan>

<tspan x="10" y="3258">npmTestPublished - 0 failed tests</tspan>

<tspan x="10" y="3274"></tspan>

<tspan x="10" y="3290"></tspan>

<tspan x="10" y="3306">\x1b[35m[MODE_BUILD=npmTestPublished]\x1b[0m - 2020-01-20T23:37:24.819Z - EXIT_CODE - 0</tspan>

</text>
</svg>
