<svg height="718" width="720" xmlns="http://www.w3.org/2000/svg">
<rect height="718" fill="#555" width="720"></rect>
<text fill="#7f7" font-family="Courier New" font-size="12" xml:space="preserve">
<tspan x="10" y="26"></tspan>

<tspan x="10" y="42">\x1b[35m[MODE_BUILD=buildApp]\x1b[0m - 2020-01-20T23:38:12.121Z - npm-testing /home/travis/build\</tspan>
<tspan x="10" y="58">/kaizhu256/node-bootstrap-lite</tspan>

<tspan x="10" y="74"></tspan>

<tspan x="10" y="90"></tspan>

<tspan x="10" y="106">buildApp - merged test-report from file /home/travis/build/kaizhu256/node-bootstrap-lite/tmp/bui\</tspan>
<tspan x="10" y="122">ld/test-report.json</tspan>

<tspan x="10" y="138">&gt; http-server listening on port 63448</tspan>

<tspan x="10" y="154"></tspan>

<tspan x="10" y="170">buildApp - merged test-report from file /home/travis/build/kaizhu256/node-bootstrap-lite/tmp/bui\</tspan>
<tspan x="10" y="186">ld/test-report.json</tspan>

<tspan x="10" y="202">jslint - 159ms /home/travis/build/kaizhu256/node-bootstrap-lite/README.md</tspan>

<tspan x="10" y="218">jslint - 1ms /home/travis/build/kaizhu256/node-bootstrap-lite/lib.bootstrap.css</tspan>

<tspan x="10" y="234">jslint - 164ms /home/travis/build/kaizhu256/node-bootstrap-lite/lib.bootstrap.js</tspan>

<tspan x="10" y="250">jslint - 7ms /home/travis/build/kaizhu256/node-bootstrap-lite/npm_scripts.sh</tspan>

<tspan x="10" y="266">jslint - 7ms /home/travis/build/kaizhu256/node-bootstrap-lite/package.json</tspan>

<tspan x="10" y="282">jslint - 64ms /home/travis/build/kaizhu256/node-bootstrap-lite/test.js</tspan>

<tspan x="10" y="298">http-server listening on port 60182</tspan>

<tspan x="10" y="314">testRunDefault - 10725 ms - testCase pending - testCase_buildApp_default ...</tspan>

<tspan x="10" y="330">testRunDefault - 13861 ms - [node test-case 1 of 1 passed] - testCase_buildApp_default</tspan>

<tspan x="10" y="346"></tspan>

<tspan x="10" y="362">buildApp - merged test-report from file /home/travis/build/kaizhu256/node-bootstrap-lite/tmp/bui\</tspan>
<tspan x="10" y="378">ld/test-report.json</tspan>

<tspan x="10" y="394"></tspan>

<tspan x="10" y="410">-------------------------------------------------------</tspan>

<tspan x="10" y="426">| test-report - buildApidoc - node - linux v13.6.0 - 2020-01-20T23:38:06.500Z</tspan>

<tspan x="10" y="442">|   13861 ms            0 failed        1 passed      |</tspan>

<tspan x="10" y="458">-------------------------------------------------------</tspan>

<tspan x="10" y="474">| test-report - npmTest - node - linux v13.6.0 - 2020-01-20T23:37:57.205Z</tspan>

<tspan x="10" y="490">|    5934 ms            0 failed        7 passed      |</tspan>

<tspan x="10" y="506">-------------------------------------------------------</tspan>

<tspan x="10" y="522">| test-report - npmTestPublished - node - linux v13.6.0 - 2020-01-20T23:37:16.307Z</tspan>

<tspan x="10" y="538">|    6015 ms            0 failed        7 passed      |</tspan>

<tspan x="10" y="554">-------------------------------------------------------</tspan>

<tspan x="10" y="570"></tspan>

<tspan x="10" y="586">created test-report file /home/travis/build/kaizhu256/node-bootstrap-lite/tmp/build/test-report.\</tspan>
<tspan x="10" y="602">html</tspan>

<tspan x="10" y="618"></tspan>

<tspan x="10" y="634"></tspan>

<tspan x="10" y="650">buildApp - 0 failed tests</tspan>

<tspan x="10" y="666"></tspan>

<tspan x="10" y="682"></tspan>

<tspan x="10" y="698">\x1b[35m[MODE_BUILD=buildApp]\x1b[0m - 2020-01-20T23:38:20.714Z - EXIT_CODE - 0</tspan>

</text>
</svg>
